<svg width="17" height="22" viewBox="0 0 17 22" fill="none" xmlns="http://www.w3.org/2000/svg">
<path d="M13.3333 6C13.3333 7.88664 12.2866 10.16 10.7333 11.4067C10.7066 11.4267 10.68 11.4467 10.6533 11.4667C9.95998 12.0067 9.17332 12.3333 8.33331 12.3333C7.49331 12.3333 6.70665 12.0067 6.01333 11.4667C5.98663 11.4467 5.95998 11.4267 5.93333 11.4067C4.37999 10.16 3.33331 7.88664 3.33331 6C3.33331 3.23999 5.57331 1 8.33331 1C11.0933 1 13.3333 3.23999 13.3333 6Z" stroke="#1F2041" stroke-opacity="0.5" stroke-width="2" stroke-miterlimit="10" stroke-linecap="round" stroke-linejoin="round"/>
<path d="M15.6667 18.3332V20.9998H1V18.3332C1 15.1198 3.06002 12.3932 5.93335 11.4065C5.96 11.4265 5.98665 11.4465 6.01335 11.4665C6.70667 12.0065 7.49333 12.3332 8.33333 12.3332C9.17334 12.3332 9.96 12.0065 10.6533 11.4665C10.68 11.4465 10.7067 11.4265 10.7333 11.4065C13.6066 12.3932 15.6667 15.1198 15.6667 18.3332Z" stroke="#1F2041" stroke-opacity="0.5" stroke-width="2" stroke-miterlimit="10" stroke-linecap="round" stroke-linejoin="round"/>
</svg>
